# xmcd CD database file
#
# Track frame offsets:
#	150
#	10688
#	20612
#	36716
#	50328
#	61793
#	76547
#	85871
#	100446
#	122799
#	132811
#	144150
#	170968
#
# Disc length: 2503 seconds
#
# Revision: 0
# Processed by: cddbd v1.5.2PL0 Copyright (c) Steve Scherf et al.
# Submitted via: jetAudio 7
#
DISCID=a509c50d
DTITLE=兪麗拿 - 夢寐以求
DYEAR=1900
DGENRE=장르 없음
TTITLE0=春之歌
TTITLE1=丁威舞曲
TTITLE2=幽默曲
TTITLE3=小步舞曲
TTITLE4=夢幻曲
TTITLE5=小夜曲
TTITLE6=那不勒斯舞曲
TTITLE7=摇籃曲
TTITLE8=梁祝-片斷樓臺會化蝶
TTITLE9=良宵
TTITLE10=巧姑娘
TTITLE11=思鄕曲
TTITLE12=快樂的薩麗哈
EXTD=
EXTT0=
EXTT1=
EXTT2=
EXTT3=
EXTT4=
EXTT5=
EXTT6=
EXTT7=
EXTT8=
EXTT9=
EXTT10=
EXTT11=
EXTT12=
PLAYORDER=
